PathFileType	4	(X/Y/Z)	RBDS015\RBDS015runT35.trc
DataRate	CameraRate	NumFrames	NumMarkers	Units	OrigDataRate	OrigDataStartFrame	OrigNumFrames
150.000000	150.000000	5	33	mm	150.000000	1125	4500
Frame#	Time	L.ASIS			L.Heel.Bottom			L.Heel.Lateral			L.Heel.Top			L.Iliac.Crest			L.MT1			L.MT5			L.PSIS			L.Shank.Bottom.Lateral			L.Shank.Bottom.Medial			L.Shank.Top.Lateral			L.Shank.Top.Medial			L.Thigh.Bottom.Lateral			L.Thigh.Bottom.Medial			L.Thigh.Top.Lateral			L.Thigh.Top.Medial			R.ASIS			R.ASY			R.Heel.Bottom			R.Heel.Lateral			R.Heel.Top			R.Iliac.Crest			R.MT1			R.MT5			R.PSIS			R.Shank.Bottom.Lateral			R.Shank.Bottom.Medial			R.Shank.Top.Lateral			R.Shank.Top.Medial			R.Thigh.Bottom.Lateral			R.Thigh.Bottom.Medial			R.Thigh.Top.Lateral			R.Thigh.Top.Medial			
		X1	Y1	Z1	X2	Y2	Z2	X3	Y3	Z3	X4	Y4	Z4	X5	Y5	Z5	X6	Y6	Z6	X7	Y7	Z7	X8	Y8	Z8	X9	Y9	Z9	X10	Y10	Z10	X11	Y11	Z11	X12	Y12	Z12	X13	Y13	Z13	X14	Y14	Z14	X15	Y15	Z15	X16	Y16	Z16	X17	Y17	Z17	X18	Y18	Z18	X19	Y19	Z19	X20	Y20	Z20	X21	Y21	Z21	X22	Y22	Z22	X23	Y23	Z23	X24	Y24	Z24	X25	Y25	Z25	X26	Y26	Z26	X27	Y27	Z27	X28	Y28	Z28	X29	Y29	Z29	X30	Y30	Z30	X31	Y31	Z31	X32	Y32	Z32	X33	Y33	Z33	

1126	7.500000000000001	2179.128636935187	1053.359905680926	884.4804695525555	1939.193654352672	178.6037686192222	977.9606919784547	1965.057691455639	181.8377337537259	933.7247244823383	1965.943499151802	211.3306388971606	976.0747590122432	2096.227554046106	1150.379085723979	851.6368789429594	2134.165371035173	92.89363504261627	998.291117096855	2090.765281320731	95.18722369372878	892.1353545670042	2007.667770428505	1114.192767137347	958.2727288284556	2081.106241198639	285.8470583668274	904.1838149969466	2043.101117216399	309.7650344065896	928.5295280178648	2118.137494060141	355.9623426652213	886.5503230536093	2081.354418947529	383.9375203173865	912.9444884840436	2249.832170446635	711.2890654746358	840.2492572312599	2193.155324130137	680.3307309317894	862.0760833523284	2193.050698032144	804.6795552523591	824.0036528103883	2133.304318453419	771.2601477458461	847.2440898345818	2186.053995934371	1037.053812414041	1108.364986358333	1767.049720789937	93.29245929250686	1054.771785716379	1599.180451616627	174.9557362459262	1027.957520519548	1626.687087948141	169.5234560345013	1073.144638082199	1634.581412303065	203.9727781849213	1035.306383272339	2139.695207152879	1128.412499984955	1152.485670418114	1763.504237486804	50.03808853562204	1002.486650767194	1714.791438650224	59.40183335046888	1112.913308320461	2012.974680412335	1111.735846368026	1051.535465967685	1747.296948608498	259.1717926034565	1097.179767321491	1708.401606810537	285.582333442577	1066.819222175088	1785.336938660288	330.2319386232547	1108.277570210149	1746.769167009401	354.9253001896533	1079.160624034726	1997.830153273787	704.0332808233067	1141.086050597783	1941.525224890219	718.822766645985	1096.934755675379	2011.590508957534	811.6567202802314	1154.068436627568	1958.811326391375	826.1441505487819	1111.062595415538	
1127	7.506666666666667	2181.143223587442	1057.99649724002	884.0095592914455	1968.090050347424	159.8688063828028	980.1807436295669	1993.377843191369	164.6766124488647	935.7798848065611	1992.548466520541	194.3315497903542	977.9852656603078	2097.724241607669	1155.984534281804	850.8961006411914	2168.681809123132	87.84661615696096	999.9326848777378	2124.602256956513	86.64102575116324	893.9335261025451	2009.9122901164	1118.948054144163	958.2972657779003	2101.803169977803	276.8221408350674	905.5886896337045	2062.598995611872	298.1346395182812	930.4502205187017	2133.952993051868	349.2206567278147	887.7627132695745	2095.685308370686	374.709859280135	914.643741958726	2249.451108253196	714.2907307261025	841.6196830253532	2192.833753915838	683.6935586995623	864.1175075099995	2192.827140565693	807.727789791072	825.0733299843957	2133.193594975618	774.7693759051675	849.2845450110244	2188.359203728711	1040.375045293257	1107.452296270219	1751.166234574007	96.53403323004876	1056.749037674554	1588.557564248269	189.2647402303089	1032.415594952933	1616.224208066141	181.512692568155	1077.202427728051	1625.856156138198	215.7814248547433	1039.617029365307	2142.707589039423	1133.226362812211	1151.732964421843	1744.18814790824	53.67408439728132	1004.129148873453	1697.327842117347	65.10273654501594	1114.721279579245	2015.516853894025	1116.036372676459	1051.582446802014	1737.320430608262	266.79120586773	1100.282262459119	1698.487334779206	293.1186482561333	1069.787417675437	1775.741157030629	337.8015584335228	1110.605813367149	1737.225707536934	362.39703637216	1081.30334279669	1993.373004154994	709.597066902566	1140.930737367185	1937.311095395455	725.5937063935248	1096.846549673072	2009.716193152927	816.9567653534232	1153.783605305947	1957.22212552154	832.5336275079998	1110.7206115439	
1128	7.513333333333334	2183.167763736094	1062.379142939848	883.5469098269248	1998.003405869129	142.1410096615637	981.9120611119138	2022.681275767213	148.5202099485529	937.3961571852432	2020.012551550716	178.1927569953447	979.4632467068946	2099.472966747472	1161.314469040258	850.0642297109757	2203.153085211229	84.30033315419432	1001.39011016629	2158.870424678102	79.55740086149754	895.4663715881713	2012.168420152974	1123.422736001987	958.3631324030074	2122.839035086643	268.3351866013962	906.6978981552647	2082.610228979679	286.9692225717517	932.0504384837419	2149.972547841413	342.6701161730931	888.7257868552331	2110.372164772627	365.5850983219574	916.0411349010249	2248.256032369897	716.3798567336436	842.9974430622361	2191.70402294378	686.2541249242696	866.2578190542349	2191.914720699412	809.9503263994181	826.1992266951991	2132.405057204566	777.5779739628201	851.4872537548789	2190.650845704805	1043.429959381331	1106.480840237796	1735.739608331786	100.6347762533666	1058.57314644124	1578.685765561581	203.6536069579467	1037.088671706187	1606.483205740377	193.7425284681478	1081.406146657653	1617.729348690759	227.6597029200692	1043.968882705897	2145.559004739566	1137.789128377559	1150.915066621437	1725.349537180207	58.15682054541696	1005.859092348706	1680.640213981137	71.69720131115722	1116.63550729879	2018.059724471085	1120.186579625154	1051.67615571638	1728.019715924961	274.3378914348104	1103.298341231122	1689.217546843563	300.7428517089825	1072.873363696099	1766.9862423291	345.1971436936015	1112.915857640126	1728.503365159744	369.8319499644756	1083.594981293061	1989.512720193416	714.855950676234	1140.833943515457	1933.683847178452	731.9272405280243	1096.827723599516	2008.219223309015	821.9346214327539	1153.548937029002	1955.981010068083	838.4839237419277	1110.462093835193	
1129	7.52	2185.121768442934	1066.387706328702	883.1094556237177	2028.736216394959	125.6150738244653	983.181452334656	2052.775444085474	133.5668635014268	938.591893242296	2048.15183872751	163.0920136576267	980.5331268543156	2101.425037444352	1166.268036081315	849.1920789442212	2237.330302528968	82.36536955444221	1002.652370247805	2193.321397263724	74.10758133930339	896.7342995037874	2014.387597741219	1127.568580671816	958.4719329460016	2144.077359290933	260.526016252204	907.5310953843145	2102.998084695728	276.4227067660514	933.3398216773631	2166.100278791362	336.4366618954836	889.4593006166572	2125.325150688789	356.6998513430348	917.1503050741268	2246.325137600349	717.5692789934994	844.3076498847443	2189.873916436188	688.0226342750865	868.4435887438157	2190.375887377261	811.3445031791022	827.2927835360957	2131.023173513854	779.67537645161	853.7662879990185	2192.896787584475	1046.186740325442	1105.484502242557	1720.7335118423	105.6604947269921	1060.264976652251	1569.338457514094	218.0164256029654	1041.848418961873	1597.232567279209	206.1317396327067	1085.655780749059	1609.941282250318	239.5689456696101	1048.278986087744	2148.292172148883	1142.024367670377	1150.041114082149	1707.03878469318	63.55614685295699	1007.648042338113	1664.692576207643	79.15625485189244	1118.626505258146	2020.577709607039	1124.138977355051	1051.838963125507	1719.245438955359	281.8449260620241	1106.18706994284	1680.469010273343	308.5210397600144	1076.036802871802	1758.960989744195	352.4169810592002	1115.191508265847	1720.513101250298	377.2649223520797	1086.026195510427	1986.294584290264	719.724371446893	1140.79853974377	1930.67778205162	737.7505076619318	1096.890415211166	2007.137884318262	826.512173378289	1153.377353205737	1955.110966701686	843.9290359687042	1110.318114372473	
1130	7.526666666666667	2186.933300249065	1069.908453498314	882.7143845580863	2060.036370196593	110.4634196628299	984.0296611577454	2083.408701344015	119.9847334928277	939.3975252358179	2076.732161654641	149.184863225671	981.2270962655922	2103.53431712132	1170.748861562787	848.3277373546334	2270.930228562811	82.11515966435894	1003.714963169031	2227.654310094219	70.41224148557565	897.7482491612088	2016.523553026121	1131.337486720115	958.6185456386027	2165.343585365235	253.5177226293942	908.1144956084528	2123.585306633275	266.6338955747296	934.3371792782874	2182.205257503549	330.638079875533	889.9893779450778	2140.418237083468	348.1847494305086	917.9956607709375	2243.766548740633	717.903318181975	845.4700912419127	2187.482887954665	689.0378752439231	870.6183832890771	2188.301249215792	811.9384088652703	828.2633571492927	2129.159314415326	781.077496105851	856.0340647361186	2195.073048474494	1048.621261552756	1104.495318649845	1706.123440062298	111.6452340090267	1061.859211657786	1560.291919466693	232.2637791269736	1046.550412746939	1588.241356646802	218.6081789952267	1089.838010291907	1602.245302890737	251.4826889882512	1052.456137253699	2150.957083844634	1145.87558864325	1149.123023667897	1689.325897352511	69.91448518537585	1009.469210745626	1649.432504676076	87.42994375642569	1120.661614696052	2023.044350618256	1127.841517108332	1052.082442144162	1710.849582090638	289.3630886926874	1108.916189522618	1672.127898053964	316.5247662882672	1079.227535923041	1751.545824346719	359.4789385107273	1117.420637337399	1713.164631930015	384.7413369369586	1088.575821758087	1983.773468240891	724.1174930476316	1140.835980621165	1928.331080185613	742.9907109273499	1097.062132055556	2006.520436363399	830.613342120105	1153.291711687769	1954.643950376993	848.8033522781262	1110.330924757937	
